<svg width="680" height="160" viewBox="0 0 680 160" xmlns="http://www.w3.org/2000/svg">
<defs>
  <linearGradient id="bg" x1="0%" y1="0%" x2="100%" y2="100%">
    <stop offset="0%" style="stop-color:#0d0a05"/>
    <stop offset="100%" style="stop-color:#1a1508"/>
  </linearGradient>
  <linearGradient id="gold" x1="0%" y1="0%" x2="100%" y2="100%">
    <stop offset="0%" style="stop-color:#f0d080"/>
    <stop offset="50%" style="stop-color:#c9a84c"/>
    <stop offset="100%" style="stop-color:#8a6020"/>
  </linearGradient>
  <linearGradient id="line" x1="0%" y1="0%" x2="100%" y2="0%">
    <stop offset="0%" style="stop-color:transparent"/>
    <stop offset="50%" style="stop-color:#c9a84c"/>
    <stop offset="100%" style="stop-color:transparent"/>
  </linearGradient>
</defs>

<rect width="680" height="160" fill="url(#bg)" rx="8"/>
<rect x="0" y="0" width="680" height="160" fill="none" stroke="#c9a84c" stroke-width="0.5" stroke-opacity="0.3" rx="8"/>
<rect x="40" y="28" width="600" height="1" fill="url(#line)"/>
<rect x="40" y="132" width="600" height="1" fill="url(#line)"/>
<polygon points="340,18 344,24 340,30 336,24" fill="#c9a84c" opacity="0.8"/>
<text x="340" y="88" text-anchor="middle" font-family="Georgia, serif" font-size="54" font-weight="900" fill="url(#gold)" letter-spacing="-1">GrepoPlus</text>
<text x="340" y="114" text-anchor="middle" font-family="Georgia, serif" font-size="13" font-style="italic" fill="#7a6e5a" letter-spacing="2">Automatisez · Dominez · Répétez</text>
<rect x="40" y="44" width="1" height="72" fill="#c9a84c" opacity="0.2"/>
<rect x="639" y="44" width="1" height="72" fill="#c9a84c" opacity="0.2"/>
<circle cx="40" cy="28" r="2" fill="#c9a84c" opacity="0.5"/>
<circle cx="640" cy="28" r="2" fill="#c9a84c" opacity="0.5"/>
<circle cx="40" cy="132" r="2" fill="#c9a84c" opacity="0.5"/>
<circle cx="640" cy="132" r="2" fill="#c9a84c" opacity="0.5"/>
</svg>
